<svg xmlns="http://www.w3.org/2000/svg" version="1.1" xmlns:xlink="http://www.w3.org/1999/xlink" xmlns:svgjs="http://svgjs.dev/svgjs" width="2000" height="1252" viewBox="0 0 2000 1252"><g transform="matrix(1,0,0,1,-1.2121212121212466,-2.01935483870966)"><svg viewBox="0 0 396 248" data-background-color="#efe9dd" preserveAspectRatio="xMidYMid meet" height="1252" width="2000" xmlns="http://www.w3.org/2000/svg" xmlns:xlink="http://www.w3.org/1999/xlink"><g id="tight-bounds" transform="matrix(1,0,0,1,0.2400000000000091,0.4000000000000057)"><svg viewBox="0 0 395.52 247.2" height="247.2" width="395.52"><g><svg></svg></g><g><svg viewBox="0 0 395.52 247.2" height="247.2" width="395.52"><mask id="1581699c-b9fe-4a63-8db6-6d11a6f739e2"><rect width="640" height="400" fill="white"></rect><g transform="matrix(1,0,0,1,39.55199999999999,66.75447799152266)"><svg viewBox="0 0 316.416 113.69104401695466" height="113.69104401695466" width="316.416"><g><svg viewBox="0 0 316.416 113.69104401695466" height="113.69104401695466" width="316.416"><g><svg viewBox="0 0 316.416 113.69104401695466" height="113.69104401695466" width="316.416"><g><svg viewBox="0 0 316.416 113.69104401695466" height="113.69104401695466" width="316.416"><g id="SvgjsG4324"><svg viewBox="0 0 316.416 113.69104401695466" height="113.69104401695466" width="316.416" id="SvgjsSvg4323"><g><svg viewBox="0 0 316.416 113.69104401695466" height="113.69104401695466" width="316.416"><g transform="matrix(1,0,0,1,0,0)"><svg width="316.416" viewBox="-1.15 -39.9 154.34 56.1" height="113.69104401695466" data-palette-color="#8a2851"><path d="M10.35 0.25L10.35 0.25 10.1-2.2 16.3-3.35 14.35-1.4Q14.45-1.85 14.6-2.93 14.75-4 14.9-5.13 15.05-6.25 15.05-6.75L15.05-6.75 15.05-28.5Q15.05-29.05 14.9-30.13 14.75-31.2 14.6-32.3 14.45-33.4 14.35-33.9L14.35-33.9 19.85-33.9Q19.8-33.5 19.68-32.35 19.55-31.2 19.45-29.75 19.35-28.3 19.35-27L19.35-27 19.35-8.25Q19.35-6.95 19.45-5.63 19.55-4.3 19.68-3.18 19.8-2.05 19.9-1.4L19.9-1.4 18-3.15 24.75-2.65 24.4 0 17.5 0Q16.95 0 15.7 0.05 14.45 0.1 13 0.15 11.55 0.2 10.35 0.25ZM5.75-26.2L5.75-26.2 2.85-26.45 3.2-34.6 4.15-35.5Q5.1-35.45 6.25-35.4 7.4-35.35 8.4-35.3 9.4-35.25 9.85-35.25L9.85-35.25 24.5-35.25Q24.95-35.25 25.93-35.3 26.9-35.35 28.08-35.4 29.25-35.45 30.2-35.5L30.2-35.5 31.15-34.6 31.5-26.45 28.65-26.2Q28.6-26.9 28.48-27.75 28.35-28.6 28.23-29.35 28.1-30.1 27.95-30.45L27.95-30.45 26.25-33.85 28.3-32.25Q27.55-32.35 25.93-32.45 24.3-32.55 23-32.55L23-32.55 11.35-32.55Q10.5-32.55 9.45-32.48 8.4-32.4 7.48-32.35 6.55-32.3 6-32.25L6-32.25 8.1-33.85 6.4-30.45Q6.25-29.9 6.05-28.55 5.85-27.2 5.75-26.2ZM46.65 0.5L46.65 0.5Q42.85 0.5 40.3-1.15 37.75-2.8 36.47-5.68 35.2-8.55 35.2-12.3L35.2-12.3Q35.2-16.1 36.47-18.98 37.75-21.85 40.3-23.5 42.85-25.15 46.65-25.15L46.65-25.15Q52.35-25.15 55.17-21.63 58-18.1 58-12.3L58-12.3Q58-8.55 56.72-5.65 55.45-2.75 52.92-1.13 50.4 0.5 46.65 0.5ZM46.65-2.2L46.65-2.2Q49.35-2.2 50.9-3.7 52.45-5.2 53.07-7.53 53.7-9.85 53.7-12.3L53.7-12.3Q53.7-14.8 53.07-17.13 52.45-19.45 50.9-20.95 49.35-22.45 46.65-22.45L46.65-22.45Q43.95-22.45 42.4-20.98 40.85-19.5 40.17-17.18 39.5-14.85 39.5-12.3L39.5-12.3Q39.5-9.8 40.17-7.48 40.85-5.15 42.4-3.68 43.95-2.2 46.65-2.2ZM81-15.9L70.65 12.2 67.55 10.95 67.45 10.55Q68.3 9.25 68.95 8.03 69.6 6.8 70.17 5.43 70.75 4.05 71.37 2.35 72 0.65 72.8-1.6L72.8-1.6 72.9 1.5 65-16.7Q64.3-18.35 63.4-19.95 62.5-21.55 61.6-23.15L61.6-23.15 64-21.25 60-22.1 60.25-24.7 71.05-24.7 71.2-22.1 65.75-21.55 66.95-23.35Q67.35-21.9 67.75-20.38 68.15-18.85 68.75-17.4L68.75-17.4 74.55-3.35 73.25-3.35 78.35-16.7Q78.95-18.3 79.4-19.98 79.85-21.65 80.25-23.3L80.25-23.3 81.45-21.4 76-22.35 76.25-24.7 86.2-24.7 86.35-22.1 82-21.45 84.35-23.25Q83.5-21.4 82.6-19.6 81.7-17.8 81-15.9L81-15.9ZM99.74 0.5L99.74 0.5Q95.94 0.5 93.39-1.15 90.84-2.8 89.57-5.68 88.29-8.55 88.29-12.3L88.29-12.3Q88.29-16.1 89.57-18.98 90.84-21.85 93.39-23.5 95.94-25.15 99.74-25.15L99.74-25.15Q105.44-25.15 108.27-21.63 111.09-18.1 111.09-12.3L111.09-12.3Q111.09-8.55 109.82-5.65 108.54-2.75 106.02-1.13 103.49 0.5 99.74 0.5ZM99.74-2.2L99.74-2.2Q102.44-2.2 103.99-3.7 105.54-5.2 106.17-7.53 106.79-9.85 106.79-12.3L106.79-12.3Q106.79-14.8 106.17-17.13 105.54-19.45 103.99-20.95 102.44-22.45 99.74-22.45L99.74-22.45Q97.04-22.45 95.49-20.98 93.94-19.5 93.27-17.18 92.59-14.85 92.59-12.3L92.59-12.3Q92.59-9.8 93.27-7.48 93.94-5.15 95.49-3.68 97.04-2.2 99.74-2.2ZM124.24 0.5L124.24 0.5Q121.19 0.5 119.27-0.28 117.34-1.05 116.49-1.55L116.49-1.55 116.49-8 119.34-8.2 119.34-6.2Q119.34-5.85 119.59-5.05 119.84-4.25 120.24-3.4 120.64-2.55 121.04-1.95L121.04-1.95 119.59-4.1Q120.49-2.8 121.64-2.35 122.79-1.9 124.29-1.9L124.29-1.9Q126.29-1.9 127.49-2.85 128.69-3.8 128.69-5.85L128.69-5.85Q128.69-7.7 127.09-8.78 125.49-9.85 123.39-10.85L123.39-10.85Q122.14-11.45 120.89-12.13 119.64-12.8 118.62-13.68 117.59-14.55 116.97-15.75 116.34-16.95 116.34-18.6L116.34-18.6Q116.34-21.7 118.57-23.43 120.79-25.15 124.04-25.15L124.04-25.15Q125.69-25.15 127.54-24.93 129.39-24.7 131.14-24.3L131.14-24.3 131.09-17.25 128.24-17.4 128.24-19.15Q128.24-19.45 127.97-20.25 127.69-21.05 127.37-21.93 127.04-22.8 126.84-23.3L126.84-23.3 128.54-21.45Q127.29-22.15 126.39-22.4 125.49-22.65 124.09-22.65L124.09-22.65Q122.34-22.65 121.24-21.78 120.14-20.9 120.14-19.3L120.14-19.3Q120.14-17.55 121.74-16.48 123.34-15.4 125.44-14.45L125.44-14.45Q126.74-13.85 127.99-13.15 129.24-12.45 130.29-11.58 131.34-10.7 131.97-9.53 132.59-8.35 132.59-6.75L132.59-6.75Q132.59-2.8 130.34-1.15 128.09 0.5 124.24 0.5ZM136.99 0.25L136.99 0.25 136.74-2.15 142.34-3.3 140.34-1.45Q140.44-1.85 140.61-2.85 140.79-3.85 140.96-4.98 141.14-6.1 141.14-6.7L141.14-6.7 141.14-17.8Q141.14-18.45 141.01-19.48 140.89-20.5 140.71-21.6 140.54-22.7 140.39-23.45L140.39-23.45 142.34-21.15 136.84-22.1 137.09-24.7 144.29-24.7 145.24-23.8Q145.19-23.05 145.11-21.73 145.04-20.4 144.99-18.95 144.94-17.5 144.94-16.3L144.94-16.3 144.94-8.2Q144.94-6.25 145.09-4.2 145.24-2.15 145.39-1.25L145.39-1.25 143.54-3.1 149.19-2.6 148.84 0 142.49 0Q141.99 0 141.04 0.05 140.09 0.1 139.01 0.15 137.94 0.2 136.99 0.25ZM142.29-29.6L142.29-29.6Q140.89-29.6 140.14-30.45 139.39-31.3 139.39-32.7L139.39-32.7Q139.39-34.15 140.14-35.02 140.89-35.9 142.29-35.9L142.29-35.9Q143.69-35.9 144.44-35.08 145.19-34.25 145.19-32.7L145.19-32.7Q145.19-31.3 144.46-30.45 143.74-29.6 142.29-29.6Z" opacity="1" transform="matrix(1,0,0,1,0,0)" fill="black" class="wordmark-text-0" id="SvgjsPath4322" stroke-width="7" stroke="black" stroke-linejoin="round"></path></svg></g></svg></g></svg></g></svg></g><g></g></svg></g></svg></g></svg></g></mask><g transform="matrix(1,0,0,1,39.55199999999999,66.75447799152266)"><svg viewBox="0 0 316.416 113.69104401695466" height="113.69104401695466" width="316.416"><g><svg viewBox="0 0 316.416 113.69104401695466" height="113.69104401695466" width="316.416"><g><svg viewBox="0 0 316.416 113.69104401695466" height="113.69104401695466" width="316.416"><g><svg viewBox="0 0 316.416 113.69104401695466" height="113.69104401695466" width="316.416"><g id="textblocktransform"><svg viewBox="0 0 316.416 113.69104401695466" height="113.69104401695466" width="316.416" id="textblock"><g><svg viewBox="0 0 316.416 113.69104401695466" height="113.69104401695466" width="316.416"><g transform="matrix(1,0,0,1,0,0)"><svg width="316.416" viewBox="-1.15 -39.9 154.34 56.1" height="113.69104401695466" data-palette-color="#8a2851"><path d="M10.35 0.25L10.35 0.25 10.1-2.2 16.3-3.35 14.35-1.4Q14.45-1.85 14.6-2.93 14.75-4 14.9-5.13 15.05-6.25 15.05-6.75L15.05-6.75 15.05-28.5Q15.05-29.05 14.9-30.13 14.75-31.2 14.6-32.3 14.45-33.4 14.35-33.9L14.35-33.9 19.85-33.9Q19.8-33.5 19.68-32.35 19.55-31.2 19.45-29.75 19.35-28.3 19.35-27L19.35-27 19.35-8.25Q19.35-6.95 19.45-5.63 19.55-4.3 19.68-3.18 19.8-2.05 19.9-1.4L19.9-1.4 18-3.15 24.75-2.65 24.4 0 17.5 0Q16.95 0 15.7 0.05 14.45 0.1 13 0.15 11.55 0.2 10.35 0.25ZM5.75-26.2L5.75-26.2 2.85-26.45 3.2-34.6 4.15-35.5Q5.1-35.45 6.25-35.4 7.4-35.35 8.4-35.3 9.4-35.25 9.85-35.25L9.85-35.25 24.5-35.25Q24.95-35.25 25.93-35.3 26.9-35.35 28.08-35.4 29.25-35.45 30.2-35.5L30.2-35.5 31.15-34.6 31.5-26.45 28.65-26.2Q28.6-26.9 28.48-27.75 28.35-28.6 28.23-29.35 28.1-30.1 27.95-30.45L27.95-30.45 26.25-33.85 28.3-32.25Q27.55-32.35 25.93-32.45 24.3-32.55 23-32.55L23-32.55 11.35-32.55Q10.5-32.55 9.45-32.48 8.4-32.4 7.48-32.35 6.55-32.3 6-32.25L6-32.25 8.1-33.85 6.4-30.45Q6.25-29.9 6.05-28.55 5.85-27.2 5.75-26.2ZM46.65 0.5L46.65 0.5Q42.85 0.5 40.3-1.15 37.75-2.8 36.47-5.68 35.2-8.55 35.2-12.3L35.2-12.3Q35.2-16.1 36.47-18.98 37.75-21.85 40.3-23.5 42.85-25.15 46.65-25.15L46.65-25.15Q52.35-25.15 55.17-21.63 58-18.1 58-12.3L58-12.3Q58-8.55 56.72-5.65 55.45-2.75 52.92-1.13 50.4 0.5 46.65 0.5ZM46.65-2.2L46.65-2.2Q49.35-2.2 50.9-3.7 52.45-5.2 53.07-7.53 53.7-9.85 53.7-12.3L53.7-12.3Q53.7-14.8 53.07-17.13 52.45-19.45 50.9-20.95 49.35-22.45 46.65-22.45L46.65-22.45Q43.95-22.45 42.4-20.98 40.85-19.5 40.17-17.18 39.5-14.85 39.5-12.3L39.5-12.3Q39.5-9.8 40.17-7.48 40.85-5.15 42.4-3.68 43.95-2.2 46.65-2.2ZM81-15.9L70.65 12.2 67.55 10.95 67.45 10.55Q68.3 9.25 68.95 8.03 69.6 6.8 70.17 5.43 70.75 4.05 71.37 2.35 72 0.65 72.8-1.6L72.8-1.6 72.9 1.5 65-16.7Q64.3-18.35 63.4-19.95 62.5-21.55 61.6-23.15L61.6-23.15 64-21.25 60-22.1 60.25-24.7 71.05-24.7 71.2-22.1 65.75-21.55 66.95-23.35Q67.35-21.9 67.75-20.38 68.15-18.85 68.75-17.4L68.75-17.4 74.55-3.35 73.25-3.35 78.35-16.7Q78.95-18.3 79.4-19.98 79.85-21.65 80.25-23.3L80.25-23.3 81.45-21.4 76-22.35 76.25-24.7 86.2-24.7 86.35-22.1 82-21.45 84.35-23.25Q83.5-21.4 82.6-19.6 81.7-17.8 81-15.9L81-15.9ZM99.74 0.5L99.74 0.5Q95.94 0.5 93.39-1.15 90.84-2.8 89.57-5.68 88.29-8.55 88.29-12.3L88.29-12.3Q88.29-16.1 89.57-18.98 90.84-21.85 93.39-23.5 95.94-25.15 99.74-25.15L99.74-25.15Q105.44-25.15 108.27-21.63 111.09-18.1 111.09-12.3L111.09-12.3Q111.09-8.55 109.82-5.65 108.54-2.75 106.02-1.13 103.49 0.5 99.74 0.5ZM99.74-2.2L99.74-2.2Q102.44-2.2 103.99-3.7 105.54-5.2 106.17-7.53 106.79-9.85 106.79-12.3L106.79-12.3Q106.79-14.8 106.17-17.13 105.54-19.45 103.99-20.95 102.44-22.45 99.74-22.45L99.74-22.45Q97.04-22.45 95.49-20.98 93.94-19.5 93.27-17.18 92.59-14.85 92.59-12.3L92.59-12.3Q92.59-9.8 93.27-7.48 93.94-5.15 95.49-3.68 97.04-2.2 99.74-2.2ZM124.24 0.5L124.24 0.5Q121.19 0.5 119.27-0.28 117.34-1.05 116.49-1.55L116.49-1.55 116.49-8 119.34-8.2 119.34-6.2Q119.34-5.85 119.59-5.05 119.84-4.25 120.24-3.4 120.64-2.55 121.04-1.95L121.04-1.95 119.59-4.1Q120.49-2.8 121.64-2.35 122.79-1.9 124.29-1.9L124.29-1.9Q126.29-1.9 127.49-2.85 128.69-3.8 128.69-5.85L128.69-5.85Q128.69-7.7 127.09-8.78 125.49-9.85 123.39-10.85L123.39-10.85Q122.14-11.45 120.89-12.13 119.64-12.8 118.62-13.68 117.59-14.55 116.97-15.75 116.34-16.95 116.34-18.6L116.34-18.6Q116.34-21.7 118.57-23.43 120.79-25.15 124.04-25.15L124.04-25.15Q125.69-25.15 127.54-24.93 129.39-24.7 131.14-24.3L131.14-24.3 131.09-17.25 128.24-17.4 128.24-19.15Q128.24-19.45 127.97-20.25 127.69-21.05 127.37-21.93 127.04-22.8 126.84-23.3L126.84-23.3 128.54-21.45Q127.29-22.15 126.39-22.4 125.49-22.65 124.09-22.65L124.09-22.65Q122.34-22.65 121.24-21.78 120.14-20.9 120.14-19.3L120.14-19.3Q120.14-17.55 121.74-16.48 123.34-15.4 125.44-14.45L125.44-14.45Q126.74-13.85 127.99-13.15 129.24-12.45 130.29-11.58 131.34-10.7 131.97-9.53 132.59-8.35 132.59-6.75L132.59-6.75Q132.59-2.8 130.34-1.15 128.09 0.5 124.24 0.5ZM136.99 0.25L136.99 0.25 136.74-2.15 142.34-3.3 140.34-1.45Q140.44-1.85 140.61-2.85 140.79-3.85 140.96-4.98 141.14-6.1 141.14-6.7L141.14-6.7 141.14-17.8Q141.14-18.45 141.01-19.48 140.89-20.5 140.71-21.6 140.54-22.7 140.39-23.45L140.39-23.45 142.34-21.15 136.84-22.1 137.09-24.7 144.29-24.7 145.24-23.8Q145.19-23.05 145.11-21.73 145.04-20.4 144.99-18.95 144.94-17.5 144.94-16.3L144.94-16.3 144.94-8.2Q144.94-6.25 145.09-4.2 145.24-2.15 145.39-1.25L145.39-1.25 143.54-3.1 149.19-2.6 148.84 0 142.49 0Q141.99 0 141.04 0.05 140.09 0.1 139.01 0.15 137.94 0.2 136.99 0.25ZM142.29-29.6L142.29-29.6Q140.89-29.6 140.14-30.45 139.39-31.3 139.39-32.7L139.39-32.7Q139.39-34.15 140.14-35.02 140.89-35.9 142.29-35.9L142.29-35.9Q143.69-35.9 144.44-35.08 145.19-34.25 145.19-32.7L145.19-32.7Q145.19-31.3 144.46-30.45 143.74-29.6 142.29-29.6Z" opacity="1" transform="matrix(1,0,0,1,0,0)" fill="#8a2851" class="wordmark-text-0" data-fill-palette-color="primary" id="text-0"></path></svg></g></svg></g></svg></g></svg></g><g></g></svg></g></svg></g></svg></g><g mask="url(#1581699c-b9fe-4a63-8db6-6d11a6f739e2)"><g transform="matrix(5.108333333333333, 0, 0, 5.108333333333333, 75.16, 1)"><svg xmlns="http://www.w3.org/2000/svg" xmlns:xlink="http://www.w3.org/1999/xlink" version="1.0" x="0" y="0" viewBox="1 1 48 48" enable-background="new 0 0 50 50" xml:space="preserve" height="48" width="48" class="icon-none" data-fill-palette-color="accent" id="none"><g fill="#c7a2c3" data-fill-palette-color="accent"><g fill="#c7a2c3" data-fill-palette-color="accent"><rect x="1" y="1" fill="#c7a2c3" width="23" height="5" data-fill-palette-color="accent"></rect><rect x="1" y="10" fill="#c7a2c3" width="23" height="5" data-fill-palette-color="accent"></rect><rect x="1" y="19" fill="#c7a2c3" width="23" height="5" data-fill-palette-color="accent"></rect></g><g fill="#c7a2c3" data-fill-palette-color="accent"><rect x="26" y="26" fill="#c7a2c3" width="23" height="5" data-fill-palette-color="accent"></rect><rect x="26" y="35" fill="#c7a2c3" width="23" height="5" data-fill-palette-color="accent"></rect><rect x="26" y="44" fill="#c7a2c3" width="23" height="5" data-fill-palette-color="accent"></rect></g><g fill="#c7a2c3" data-fill-palette-color="accent"><rect x="19" y="26" fill="#c7a2c3" width="5" height="23" data-fill-palette-color="accent"></rect><rect x="10" y="26" fill="#c7a2c3" width="5" height="23" data-fill-palette-color="accent"></rect><rect x="1" y="26" fill="#c7a2c3" width="5" height="23" data-fill-palette-color="accent"></rect></g><g fill="#c7a2c3" data-fill-palette-color="accent"><rect x="44" y="1" fill="#c7a2c3" width="5" height="23" data-fill-palette-color="accent"></rect><rect x="35" y="1" fill="#c7a2c3" width="5" height="23" data-fill-palette-color="accent"></rect><rect x="26" y="1" fill="#c7a2c3" width="5" height="23" data-fill-palette-color="accent"></rect></g></g></svg></g></g></svg></g><defs></defs></svg><rect width="395.52" height="247.2" fill="none" stroke="none" visibility="hidden"></rect></g></svg></g></svg>